<svg xmlns="http://www.w3.org/2000/svg"
     width="32"
     height="32"
     viewBox="0 0 32 32"
     fill="none">
  <!-- Geometry cube -->
  <g transform="translate(2.5 8.5) scale(0.88)">
    <path d="M12 3.5 L20 8 L12 12.5 L4 8 Z"
          fill="#E3F2FD"
          stroke="#1F2937"
          stroke-width="1.3"
          stroke-linejoin="round"/>
    <path d="M4 8 L4 16 L12 20.5 L12 12.5 Z"
          fill="#90CAF9"
          stroke="#1F2937"
          stroke-width="1.3"
          stroke-linejoin="round"/>
    <path d="M12 12.5 L12 20.5 L20 16 L20 8 Z"
          fill="#BBDEFB"
          stroke="#1F2937"
          stroke-width="1.3"
          stroke-linejoin="round"/>
  </g>

  <!-- Bulb rays -->
  <path d="M23.8 4.9V3.3"
        stroke="#FAB005"
        stroke-width="1.4"
        stroke-linecap="round"/>
  <path d="M27 6.3L28.1 5.2"
        stroke="#FAB005"
        stroke-width="1.4"
        stroke-linecap="round"/>
  <path d="M28.2 9.5H29.8"
        stroke="#FAB005"
        stroke-width="1.4"
        stroke-linecap="round"/>

  <!-- Light bulb -->
  <circle cx="23.8" cy="12.6" r="4.2"
          fill="#FFD43B"
          stroke="#111827"
          stroke-width="1.1"/>
  <path d="M22.1 12.3C22.8 11.4 24.8 11.4 25.5 12.3"
        stroke="#FFFFFF"
        stroke-width="1.2"
        stroke-linecap="round"/>
  <path d="M22.8 12.9V14.5M24.8 12.9V14.5"
        stroke="#FFFFFF"
        stroke-width="1.1"
        stroke-linecap="round"/>
  <path d="M21.1 16.3H26.5"
        stroke="#111827"
        stroke-width="1.1"
        stroke-linecap="round"/>
  <path d="M21.6 17.7H26"
        stroke="#111827"
        stroke-width="1.1"
        stroke-linecap="round"/>
</svg>
