<svg xmlns="http://www.w3.org/2000/svg"
     width="32"
     height="32"
     viewBox="0 0 32 32"
     fill="none">
  <!-- Geometry cube -->
  <g transform="translate(-0.3 4.8) scale(1.14)">
    <path d="M12 3.5 L20 8 L12 12.5 L4 8 Z"
          fill="#E3F2FD"
          stroke="#1F2937"
          stroke-width="1.3"
          stroke-linejoin="round"/>
    <path d="M4 8 L4 16 L12 20.5 L12 12.5 Z"
          fill="#90CAF9"
          stroke="#1F2937"
          stroke-width="1.3"
          stroke-linejoin="round"/>
    <path d="M12 12.5 L12 20.5 L20 16 L20 8 Z"
          fill="#BBDEFB"
          stroke="#1F2937"
          stroke-width="1.3"
          stroke-linejoin="round"/>
  </g>

  <!-- Bulb rays -->
  <path d="M24.5 12.8V11.2"
        stroke="#FAB005"
        stroke-width="1.4"
        stroke-linecap="round"/>
  <path d="M27.2 14L28.4 12.8"
        stroke="#FAB005"
        stroke-width="1.4"
        stroke-linecap="round"/>
  <path d="M28.2 16.8H29.8"
        stroke="#FAB005"
        stroke-width="1.4"
        stroke-linecap="round"/>

  <!-- Light bulb -->
  <circle cx="24.5" cy="19.9" r="4.2"
          fill="#FFD43B"
          stroke="#111827"
          stroke-width="1.1"/>
  <path d="M22.8 19.6C23.5 18.7 25.5 18.7 26.2 19.6"
        stroke="#FFFFFF"
        stroke-width="1.2"
        stroke-linecap="round"/>
  <path d="M23.5 20.2V21.8M25.5 20.2V21.8"
        stroke="#FFFFFF"
        stroke-width="1.1"
        stroke-linecap="round"/>
  <path d="M21.8 23.6H27.2"
        stroke="#111827"
        stroke-width="1.1"
        stroke-linecap="round"/>
  <path d="M22.3 25H26.7"
        stroke="#111827"
        stroke-width="1.1"
        stroke-linecap="round"/>
</svg>
